<?xml version="1.0" standalone="no"?>
<!DOCTYPE svg PUBLIC "-//W3C//DTD SVG 20010904//EN"
 "http://www.w3.org/TR/2001/REC-SVG-20010904/DTD/svg10.dtd">
<svg version="1.0" xmlns="http://www.w3.org/2000/svg"
 width="700.000000pt" height="700.000000pt" viewBox="0 0 700.000000 700.000000"
 preserveAspectRatio="xMidYMid meet">
<metadata>
Created by potrace 1.14, written by Peter Selinger 2001-2017
</metadata>
<g transform="translate(0.000000,700.000000) scale(0.100000,-0.100000)"
fill="#000000" stroke="none">
<path d="M1607 5834 c-1 -1 -40 -4 -87 -7 -47 -4 -96 -9 -110 -12 -14 -2 -50
-10 -79 -16 -136 -28 -291 -86 -410 -153 -186 -105 -332 -235 -506 -447 -27
-34 -120 -192 -135 -231 -7 -18 -18 -46 -25 -63 -14 -31 -41 -130 -56 -200
-31 -148 -30 -446 2 -570 5 -22 14 -55 19 -73 28 -112 147 -345 289 -570 64
-101 511 -776 528 -797 10 -12 117 -194 170 -290 138 -248 294 -627 348 -843
55 -225 73 -262 124 -254 20 3 34 15 49 40 16 30 57 152 77 232 23 94 113 348
161 456 14 33 25 59 24 59 -4 0 142 279 181 348 88 152 189 312 384 607 200
302 309 473 357 560 14 25 41 72 60 105 98 172 170 351 183 454 4 30 9 63 11
75 7 33 7 336 -1 386 -3 25 -15 80 -26 124 -125 495 -535 891 -1069 1031 -36
10 -74 19 -85 20 -11 2 -33 6 -50 9 -62 13 -317 29 -328 20z"/>
<path d="M5365 5678 c-73 -13 -84 -17 -129 -37 -167 -74 -280 -238 -293 -426
-10 -145 39 -274 144 -380 155 -156 384 -191 586 -88 56 28 195 161 205 196 1
4 9 24 18 45 40 95 50 225 25 319 -6 21 -11 41 -11 45 -1 16 -59 112 -90 152
-103 128 -301 204 -455 174z"/>
<path d="M3613 4919 c-59 -11 -96 -32 -137 -81 -56 -65 -64 -118 -42 -283 2
-16 7 -59 11 -95 4 -36 9 -73 10 -82 2 -9 6 -44 10 -77 3 -33 7 -68 9 -78 2
-10 7 -43 10 -73 4 -30 9 -71 11 -90 10 -74 17 -136 20 -170 2 -19 6 -44 8
-55 3 -11 8 -49 12 -85 3 -36 8 -78 11 -95 2 -16 6 -55 10 -85 3 -30 13 -73
23 -95 23 -51 89 -111 138 -124 122 -34 229 13 284 126 22 45 23 99 4 243 -3
25 -8 61 -9 81 -2 20 -7 50 -10 65 -3 16 -8 56 -12 89 -3 33 -7 71 -9 85 -2
14 -6 50 -9 80 -4 30 -8 66 -11 80 -4 24 -13 96 -20 168 -2 18 -6 36 -9 41 -8
13 16 27 44 25 30 -2 158 -13 220 -19 25 -3 81 -7 125 -10 43 -3 80 -7 82 -9
3 -3 -16 -56 -37 -101 -24 -53 -38 -95 -32 -95 4 0 2 -4 -3 -8 -18 -12 -182
-442 -169 -442 2 0 -1 -12 -7 -27 -16 -44 -19 -193 -5 -254 22 -92 54 -141
152 -228 49 -43 184 -165 233 -210 57 -51 167 -150 187 -168 32 -27 183 -164
222 -199 l34 -32 -103 -50 c-174 -84 -381 -183 -439 -209 -275 -127 -417 -202
-449 -238 -51 -58 -74 -119 -74 -195 -2 -154 108 -274 261 -287 83 -7 102 -1
286 87 241 116 408 196 481 230 39 17 77 36 85 41 8 5 25 13 36 18 12 5 64 30
115 54 52 25 144 68 204 97 290 137 311 152 359 253 36 77 41 162 13 237 -25
67 -67 110 -387 395 -74 66 -141 127 -150 135 -9 8 -37 34 -63 58 l-48 43 29
52 c38 69 76 137 123 220 22 38 39 72 39 77 0 4 6 13 14 19 11 9 19 -1 41 -51
15 -35 43 -96 61 -136 19 -41 34 -75 34 -78 0 -5 53 -122 78 -172 37 -74 120
-123 208 -124 65 -1 100 16 231 113 54 40 150 111 213 157 630 465 597 437
619 517 24 89 6 161 -59 226 -32 32 -59 49 -92 57 -107 27 -156 10 -304 -105
-55 -43 -115 -89 -134 -103 -18 -14 -56 -43 -84 -66 -28 -22 -67 -51 -86 -64
-19 -13 -37 -27 -40 -30 -19 -22 -142 -110 -154 -110 -7 0 -18 17 -24 38 -9
32 -97 268 -122 327 -5 11 -29 74 -54 140 -28 71 -58 133 -76 153 -58 63 -228
183 -387 273 -18 11 -50 29 -70 41 -59 33 -326 165 -348 171 -21 6 -109 16
-190 22 -27 2 -86 6 -130 9 -166 12 -244 17 -635 41 -47 3 -96 6 -110 8 -14 2
-44 0 -67 -4z"/>
<path d="M4146 3218 c-8 -16 -13 -24 -161 -244 -66 -99 -123 -181 -126 -184
-4 -3 -15 -19 -25 -37 -11 -18 -59 -92 -109 -165 -49 -73 -92 -137 -94 -143
-2 -5 -7 -12 -11 -15 -3 -3 -64 -93 -136 -200 -71 -107 -132 -196 -136 -198
-5 -2 -8 -8 -8 -13 0 -5 -22 -40 -50 -79 -27 -39 -50 -75 -50 -80 0 -6 -4 -10
-10 -10 -5 0 -10 -6 -10 -14 0 -8 -3 -16 -7 -18 -16 -7 -171 -255 -183 -291
-28 -90 -4 -197 62 -272 82 -93 193 -121 318 -80 74 25 123 81 295 339 138
206 146 221 135 245 -21 45 -46 145 -44 176 6 81 15 119 40 172 42 86 109 146
230 204 57 28 105 49 106 47 2 -2 17 6 33 18 17 11 46 27 65 34 42 16 70 38
70 56 0 7 4 14 8 16 8 3 172 242 181 263 2 5 17 28 33 50 l29 40 -59 55 c-33
30 -77 70 -98 89 -46 41 -218 194 -255 229 -20 17 -28 20 -33 10z"/>
</g>
</svg>
