<?xml version="1.0" standalone="no"?>
<!DOCTYPE svg PUBLIC "-//W3C//DTD SVG 20010904//EN"
 "http://www.w3.org/TR/2001/REC-SVG-20010904/DTD/svg10.dtd">
<svg version="1.0" xmlns="http://www.w3.org/2000/svg"
 width="700.000000pt" height="700.000000pt" viewBox="0 0 700.000000 700.000000"
 preserveAspectRatio="xMidYMid meet">
<metadata>
Created by potrace 1.14, written by Peter Selinger 2001-2017
</metadata>
<g transform="translate(0.000000,700.000000) scale(0.100000,-0.100000)"
fill="#000000" stroke="none">
<path d="M228 6814 c-63 -33 -58 240 -58 -3314 0 -3564 -5 -3281 60 -3315 26
-13 393 -15 3270 -15 3564 0 3281 -5 3315 60 13 26 15 393 15 3270 0 3564 5
3281 -60 3315 -26 13 -392 15 -3272 15 -2849 -1 -3246 -3 -3270 -16z m6372
-4134 l0 -2280 -3100 0 -3100 0 0 2280 0 2280 3100 0 3100 0 0 -2280z"/>
<path d="M2149 4271 c-85 -27 -109 -73 -109 -206 0 -111 14 -152 64 -188 29
-20 44 -22 201 -25 l171 -4 66 -215 67 -216 -100 -116 c-55 -64 -106 -120
-113 -125 -9 -6 -33 3 -73 27 -139 84 -344 145 -523 154 -375 19 -737 -142
-966 -430 -371 -466 -343 -1115 65 -1540 227 -236 511 -357 841 -357 404 0
762 194 981 533 93 144 162 334 175 481 11 119 8 116 116 116 51 0 103 3 116
6 13 4 377 305 809 670 432 365 789 662 793 659 3 -2 22 -55 40 -116 28 -91
32 -113 20 -117 -34 -12 -150 -78 -210 -120 -88 -62 -225 -202 -281 -287 -230
-347 -268 -746 -108 -1130 70 -168 252 -390 405 -493 138 -92 296 -157 459
-187 134 -26 365 -17 500 19 120 31 312 124 407 196 319 242 500 651 459 1037
-39 379 -242 703 -557 893 -219 133 -503 194 -748 161 -48 -7 -91 -10 -93 -7
-3 3 -52 155 -109 338 l-104 333 0 108 0 107 -240 0 -240 0 0 -115 0 -115 124
0 125 0 25 -82 c14 -46 22 -86 18 -89 -4 -4 -68 -16 -142 -27 -137 -22 -919
-148 -1400 -227 -146 -24 -266 -42 -267 -41 -2 1 -33 99 -98 307 -4 12 3 18
23 22 39 8 88 58 96 98 14 70 7 191 -14 234 -38 78 -47 80 -365 82 -154 1
-292 -2 -306 -6z m2296 -710 c-64 -57 -1297 -1092 -1299 -1090 -5 6 -253 800
-257 823 -4 18 47 28 771 147 897 147 796 131 785 120z m-1631 -796 c64 -204
116 -374 116 -378 0 -4 -8 -7 -18 -7 -13 0 -23 22 -44 105 -44 172 -132 340
-250 477 -49 57 -50 58 -31 81 71 89 98 116 104 104 4 -6 59 -179 123 -382z
m-849 341 c81 -22 159 -53 222 -88 l52 -29 -310 -359 c-170 -197 -309 -363
-309 -369 0 -5 13 -21 30 -34 24 -21 31 -36 36 -80 l6 -54 42 3 c122 11 938
46 943 41 9 -9 -25 -180 -49 -251 -86 -251 -291 -466 -539 -565 -227 -91 -494
-87 -719 8 -237 101 -435 314 -518 557 -117 341 -27 723 229 975 140 138 307
222 519 263 55 10 306 -2 365 -18z m3467 10 c426 -82 738 -436 765 -867 7
-113 -8 -230 -44 -344 -98 -312 -353 -547 -680 -627 -122 -30 -304 -30 -426 0
-447 110 -748 508 -724 957 12 218 81 395 221 566 87 106 318 272 331 237 3
-7 61 -195 130 -417 68 -222 126 -406 129 -408 3 -3 200 54 213 62 1 0 -56
190 -127 420 -72 231 -130 420 -130 422 0 15 259 15 342 -1z m-2976 -314 c52
-64 93 -128 133 -211 38 -78 79 -207 69 -216 -7 -7 -569 -37 -627 -33 l-48 3
214 248 c118 136 217 247 221 247 4 0 21 -17 38 -38z"/>
</g>
</svg>
