<svg version="1.1" viewBox="0.0 0.0 180.95538057742783 100.0" fill="none" stroke="none" stroke-linecap="square" stroke-miterlimit="10" xmlns:xlink="http://www.w3.org/1999/xlink" xmlns="http://www.w3.org/2000/svg"><clipPath id="p.0"><path d="m0 0l180.95538 0l0 100.0l-180.95538 0l0 -100.0z" clip-rule="nonzero"/></clipPath><g clip-path="url(#p.0)"><path fill="#000000" fill-opacity="0.0" d="m0 0l180.95538 0l0 100.0l-180.95538 0z" fill-rule="evenodd"/><path fill="#000000" fill-opacity="0.0" d="m4.528956 63.997147l0 0c0 -17.778416 14.41025 -32.190674 32.186188 -32.190674l0 0c8.536312 0 16.722996 3.391508 22.759075 9.428431c6.0360794 6.0369225 9.427116 14.224743 9.427116 22.762241l0 0c0 17.77842 -14.410248 32.190674 -32.18619 32.190674l0 0c-17.77594 0 -32.186188 -14.412254 -32.186188 -32.190674z" fill-rule="evenodd"/><path stroke="#000000" stroke-width="4.0" stroke-linejoin="round" stroke-linecap="butt" d="m4.528956 63.997147l0 0c0 -17.778416 14.41025 -32.190674 32.186188 -32.190674l0 0c8.536312 0 16.722996 3.391508 22.759075 9.428431c6.0360794 6.0369225 9.427116 14.224743 9.427116 22.762241l0 0c0 17.77842 -14.410248 32.190674 -32.18619 32.190674l0 0c-17.77594 0 -32.186188 -14.412254 -32.186188 -32.190674z" fill-rule="evenodd"/><path fill="#000000" fill-opacity="0.0" d="m112.05442 63.997147l0 0c0 -17.778416 14.410248 -32.190674 32.186195 -32.190674l0 0c8.536301 0 16.722992 3.391508 22.759079 9.428431c6.036072 6.0369225 9.427109 14.224743 9.427109 22.762241l0 0c0 17.77842 -14.410248 32.190674 -32.186188 32.190674l0 0c-17.775948 0 -32.186195 -14.412254 -32.186195 -32.190674z" fill-rule="evenodd"/><path stroke="#000000" stroke-width="4.0" stroke-linejoin="round" stroke-linecap="butt" d="m112.05442 63.997147l0 0c0 -17.778416 14.410248 -32.190674 32.186195 -32.190674l0 0c8.536301 0 16.722992 3.391508 22.759079 9.428431c6.036072 6.0369225 9.427109 14.224743 9.427109 22.762241l0 0c0 17.77842 -14.410248 32.190674 -32.186188 32.190674l0 0c-17.775948 0 -32.186195 -14.412254 -32.186195 -32.190674z" fill-rule="evenodd"/><path fill="#000000" fill-opacity="0.0" d="m143.62819 62.380806l-17.624146 -57.031254" fill-rule="evenodd"/><path stroke="#cc0000" stroke-width="4.0" stroke-linejoin="round" stroke-linecap="butt" d="m143.62819 62.380806l-17.624146 -57.031254" fill-rule="evenodd"/><path fill="#000000" fill-opacity="0.0" d="m78.2336 62.721786l-17.952759 -57.354332" fill-rule="evenodd"/><path stroke="#cc0000" stroke-width="4.0" stroke-linejoin="round" stroke-linecap="butt" d="m78.2336 62.721786l-17.952759 -57.354332" fill-rule="evenodd"/><path fill="#000000" fill-opacity="0.0" d="m77.429886 62.085896l52.600266 -44.372765" fill-rule="evenodd"/><path stroke="#cc0000" stroke-width="4.0" stroke-linejoin="round" stroke-linecap="butt" d="m77.429886 62.085896l52.600266 -44.372765" fill-rule="evenodd"/><path fill="#000000" fill-opacity="0.0" d="m129.75229 16.811384l-63.147537 10.276514" fill-rule="evenodd"/><path stroke="#cc0000" stroke-width="4.0" stroke-linejoin="round" stroke-linecap="butt" d="m129.75229 16.811384l-63.147537 10.276514" fill-rule="evenodd"/><path fill="#000000" fill-opacity="0.0" d="m35.51181 64.08137l31.370079 -36.40945" fill-rule="evenodd"/><path stroke="#cc0000" stroke-width="4.0" stroke-linejoin="round" stroke-linecap="butt" d="m35.51181 64.08137l31.370079 -36.40945" fill-rule="evenodd"/><path fill="#000000" fill-opacity="0.0" d="m35.104702 63.55478l44.094486 -2.2047234" fill-rule="evenodd"/><path stroke="#cc0000" stroke-width="4.0" stroke-linejoin="round" stroke-linecap="butt" d="m35.104702 63.55478l44.094486 -2.2047234" fill-rule="evenodd"/><path fill="#000000" fill-opacity="0.0" d="m128.4831 5.2615347l-12.503937 0" fill-rule="evenodd"/><path stroke="#000000" stroke-width="4.0" stroke-linejoin="round" stroke-linecap="butt" d="m128.4831 5.2615347l-12.503937 0" fill-rule="evenodd"/><path fill="#000000" d="m49.25891 4.8153963l0 0c0 -0.55443096 0.44945526 -1.003886 1.0038872 -1.003886l15.60194 0c0.2662506 0 0.5215912 0.1057663 0.7098541 0.29403138c0.18826294 0.18826532 0.29402924 0.4436078 0.29402924 0.7098546l0 4.0154247c0 0.55443096 -0.44945526 1.0038862 -1.0038834 1.0038862l-15.60194 0c-0.5544319 0 -1.0038872 -0.44945526 -1.0038872 -1.0038862z" fill-rule="evenodd"/><path stroke="#000000" stroke-width="4.0" stroke-linejoin="round" stroke-linecap="butt" d="m49.25891 4.8153963l0 0c0 -0.55443096 0.44945526 -1.003886 1.0038872 -1.003886l15.60194 0c0.2662506 0 0.5215912 0.1057663 0.7098541 0.29403138c0.18826294 0.18826532 0.29402924 0.4436078 0.29402924 0.7098546l0 4.0154247c0 0.55443096 -0.44945526 1.0038862 -1.0038834 1.0038862l-15.60194 0c-0.5544319 0 -1.0038872 -0.44945526 -1.0038872 -1.0038862z" fill-rule="evenodd"/></g></svg>