<svg version="1.1" viewBox="0.0 0.0 107.2992125984252 108.38845144356955" fill="none" stroke="none" stroke-linecap="square" stroke-miterlimit="10" xmlns:xlink="http://www.w3.org/1999/xlink" xmlns="http://www.w3.org/2000/svg"><clipPath id="p.0"><path d="m0 0l107.29921 0l0 108.38845l-107.29921 0l0 -108.38845z" clip-rule="nonzero"/></clipPath><g clip-path="url(#p.0)"><path fill="#000000" fill-opacity="0.0" d="m0 0l107.29921 0l0 108.38845l-107.29921 0z" fill-rule="evenodd"/><path fill="#000000" fill-opacity="0.0" d="m5.2349114 54.194347l0 0c0 -26.738726 21.676022 -48.414745 48.414745 -48.414745l0 0c12.840385 0 25.15487 5.100825 34.234398 14.180351c9.079521 9.079527 14.180351 21.394007 14.180351 34.234398l0 0c0 26.738728 -21.676025 48.414745 -48.41475 48.414745l0 0c-26.738726 0 -48.414745 -21.676018 -48.414745 -48.414745z" fill-rule="evenodd"/><path stroke="#000000" stroke-width="8.0" stroke-linejoin="round" stroke-linecap="butt" d="m5.2349114 54.194347l0 0c0 -26.738726 21.676022 -48.414745 48.414745 -48.414745l0 0c12.840385 0 25.15487 5.100825 34.234398 14.180351c9.079521 9.079527 14.180351 21.394007 14.180351 34.234398l0 0c0 26.738728 -21.676025 48.414745 -48.41475 48.414745l0 0c-26.738726 0 -48.414745 -21.676018 -48.414745 -48.414745z" fill-rule="evenodd"/><path fill="#000000" fill-opacity="0.0" d="m53.642033 55.9091l0 -38.07874" fill-rule="evenodd"/><path stroke="#000000" stroke-width="4.0" stroke-linejoin="round" stroke-linecap="butt" d="m53.642033 55.9091l0 -38.07874" fill-rule="evenodd"/><path fill="#000000" fill-opacity="0.0" d="m75.35696 66.06562l-22.614174 -12.000004" fill-rule="evenodd"/><path stroke="#000000" stroke-width="4.0" stroke-linejoin="round" stroke-linecap="butt" d="m75.35696 66.06562l-22.614174 -12.000004" fill-rule="evenodd"/></g></svg>