<svg version="1.1" viewBox="0.0 0.0 585.0 585.0" fill="none" stroke="none" stroke-linecap="square" stroke-miterlimit="10" xmlns:xlink="http://www.w3.org/1999/xlink" xmlns="http://www.w3.org/2000/svg"><clipPath id="p.0"><path d="m0 0l585.0 0l0 585.0l-585.0 0l0 -585.0z" clip-rule="nonzero"/></clipPath><g clip-path="url(#p.0)"><path fill="#000000" fill-opacity="0.0" d="m0 0l585.0 0l0 585.0l-585.0 0z" fill-rule="evenodd"/><path fill="#000000" fill-opacity="0.0" d="m163.0 36.498688l-134.99213 0" fill-rule="evenodd"/><path stroke="#000000" stroke-width="24.0" stroke-linejoin="round" stroke-linecap="butt" d="m163.0 36.498688l-134.99213 0" fill-rule="evenodd"/><path fill="#000000" fill-opacity="0.0" d="m560.0 37.0l-134.99213 0" fill-rule="evenodd"/><path stroke="#000000" stroke-width="24.0" stroke-linejoin="round" stroke-linecap="butt" d="m560.0 37.0l-134.99213 0" fill-rule="evenodd"/><path fill="#000000" fill-opacity="0.0" d="m38.254593 161.7454l0 -134.99213" fill-rule="evenodd"/><path stroke="#000000" stroke-width="24.0" stroke-linejoin="round" stroke-linecap="butt" d="m38.254593 161.7454l0 -134.99213" fill-rule="evenodd"/><path fill="#000000" fill-opacity="0.0" d="m37.75328 558.7454l0 -134.99213" fill-rule="evenodd"/><path stroke="#000000" stroke-width="24.0" stroke-linejoin="round" stroke-linecap="butt" d="m37.75328 558.7454l0 -134.99213" fill-rule="evenodd"/><path fill="#000000" fill-opacity="0.0" d="m560.0 549.0l-134.99213 0" fill-rule="evenodd"/><path stroke="#000000" stroke-width="24.0" stroke-linejoin="round" stroke-linecap="butt" d="m560.0 549.0l-134.99213 0" fill-rule="evenodd"/><path fill="#000000" fill-opacity="0.0" d="m549.7533 558.7454l0 -134.99213" fill-rule="evenodd"/><path stroke="#000000" stroke-width="24.0" stroke-linejoin="round" stroke-linecap="butt" d="m549.7533 558.7454l0 -134.99213" fill-rule="evenodd"/><path fill="#000000" fill-opacity="0.0" d="m550.2546 161.7454l0 -134.99213" fill-rule="evenodd"/><path stroke="#000000" stroke-width="24.0" stroke-linejoin="round" stroke-linecap="butt" d="m550.2546 161.7454l0 -134.99213" fill-rule="evenodd"/><path fill="#000000" fill-opacity="0.0" d="m163.0 548.49866l-134.99213 0" fill-rule="evenodd"/><path stroke="#000000" stroke-width="24.0" stroke-linejoin="round" stroke-linecap="butt" d="m163.0 548.49866l-134.99213 0" fill-rule="evenodd"/></g></svg>