<svg version="1.1" viewBox="0.0 0.0 585.0 585.0" fill="none" stroke="none" stroke-linecap="square" stroke-miterlimit="10" xmlns:xlink="http://www.w3.org/1999/xlink" xmlns="http://www.w3.org/2000/svg"><clipPath id="p.0"><path d="m0 0l585.0 0l0 585.0l-585.0 0l0 -585.0z" clip-rule="nonzero"/></clipPath><g clip-path="url(#p.0)"><path fill="#000000" fill-opacity="0.0" d="m0 0l585.0 0l0 585.0l-585.0 0z" fill-rule="evenodd"/><path fill="#000000" fill-opacity="0.0" d="m69.99492 292.99884l0 0c0 -122.88551 99.61841 -222.50392 222.50392 -222.50392l0 0c59.01172 0 115.606476 23.442307 157.33405 65.16989c41.7276 41.727585 65.16992 98.32233 65.16992 157.33403l0 0c0 122.88556 -99.61841 222.50397 -222.50397 222.50397l0 0c-122.88551 0 -222.50392 -99.61841 -222.50392 -222.50397z" fill-rule="evenodd"/><path stroke="#000000" stroke-width="24.0" stroke-linejoin="round" stroke-linecap="butt" d="m69.99492 292.99884l0 0c0 -122.88551 99.61841 -222.50392 222.50392 -222.50392l0 0c59.01172 0 115.606476 23.442307 157.33405 65.16989c41.7276 41.727585 65.16992 98.32233 65.16992 157.33403l0 0c0 122.88556 -99.61841 222.50397 -222.50397 222.50397l0 0c-122.88551 0 -222.50392 -99.61841 -222.50392 -222.50397z" fill-rule="evenodd"/><path fill="#000000" fill-opacity="0.0" d="m147.0 292.4987l-134.99213 0" fill-rule="evenodd"/><path stroke="#000000" stroke-width="24.0" stroke-linejoin="round" stroke-linecap="butt" d="m147.0 292.4987l-134.99213 0" fill-rule="evenodd"/><path fill="#000000" fill-opacity="0.0" d="m576.0 293.0l-134.99213 0" fill-rule="evenodd"/><path stroke="#000000" stroke-width="24.0" stroke-linejoin="round" stroke-linecap="butt" d="m576.0 293.0l-134.99213 0" fill-rule="evenodd"/><path fill="#000000" fill-opacity="0.0" d="m294.2546 145.7454l0 -134.99213" fill-rule="evenodd"/><path stroke="#000000" stroke-width="24.0" stroke-linejoin="round" stroke-linecap="butt" d="m294.2546 145.7454l0 -134.99213" fill-rule="evenodd"/><path fill="#000000" fill-opacity="0.0" d="m293.7533 574.7454l0 -134.99213" fill-rule="evenodd"/><path stroke="#000000" stroke-width="24.0" stroke-linejoin="round" stroke-linecap="butt" d="m293.7533 574.7454l0 -134.99213" fill-rule="evenodd"/></g></svg>