<svg version="1.1" viewBox="0.0 0.0 107.2992125984252 108.38845144356955" fill="none" stroke="none" stroke-linecap="square" stroke-miterlimit="10" xmlns:xlink="http://www.w3.org/1999/xlink" xmlns="http://www.w3.org/2000/svg"><clipPath id="p.0"><path d="m0 0l107.29921 0l0 108.38845l-107.29921 0l0 -108.38845z" clip-rule="nonzero"/></clipPath><g clip-path="url(#p.0)"><path fill="#000000" fill-opacity="0.0" d="m0 0l107.29921 0l0 108.38845l-107.29921 0z" fill-rule="evenodd"/><path fill="#000000" fill-opacity="0.0" d="m4.6639004 92.36755c5.079273 -10.666626 23.686134 -56.41824 30.475637 -63.999756c6.789501 -7.5815163 5.3898697 20.630537 10.261372 18.510656c4.8715057 -2.1198769 9.882061 -38.923058 18.967644 -31.229923c9.085587 7.6931334 29.621567 64.49061 35.545876 77.388725" fill-rule="evenodd"/><path stroke="#000000" stroke-width="8.0" stroke-linejoin="round" stroke-linecap="butt" d="m4.6639004 92.36755c5.079273 -10.666626 23.686134 -56.41824 30.475637 -63.999756c6.789501 -7.5815163 5.3898697 20.630537 10.261372 18.510656c4.8715057 -2.1198769 9.882061 -38.923058 18.967644 -31.229923c9.085587 7.6931334 29.621567 64.49061 35.545876 77.388725" fill-rule="evenodd"/></g></svg>