<svg version="1.1" viewBox="0.0 0.0 726.2965879265092 726.2965879265092" fill="none" stroke="none" stroke-linecap="square" stroke-miterlimit="10" xmlns:xlink="http://www.w3.org/1999/xlink" xmlns="http://www.w3.org/2000/svg"><clipPath id="p.0"><path d="m0 0l726.2966 0l0 726.2966l-726.2966 0l0 -726.2966z" clip-rule="nonzero"/></clipPath><g clip-path="url(#p.0)"><path fill="#000000" fill-opacity="0.0" d="m0 0l726.2966 0l0 726.2966l-726.2966 0z" fill-rule="evenodd"/><path fill="#666666" d="m95.683876 53.904053l534.92914 309.24408l-534.92914 309.24408z" fill-rule="evenodd"/><path stroke="#666666" stroke-width="1.0" stroke-linejoin="round" stroke-linecap="butt" d="m95.683876 53.904053l534.92914 309.24408l-534.92914 309.24408z" fill-rule="evenodd"/><path fill="#000000" fill-opacity="0.0" d="m459.12598 397.54855l129.57483 0l0 342.58267l-129.57483 0z" fill-rule="evenodd"/><path fill="#666666" d="m567.4697 662.5486l-23.4375 0l0 -149.34375q-8.46875 8.078125 -22.203125 16.15625q-13.734375 8.0625 -24.671875 12.09375l0 -22.65625q19.671875 -9.2344055 34.375 -22.390656q14.71875 -13.15625 20.828125 -25.515625l15.109375 0l0 191.65628z" fill-rule="nonzero"/></g></svg>