<svg version="1.1" viewBox="0.0 0.0 100.0 125.79002624671917" fill="none" stroke="none" stroke-linecap="square" stroke-miterlimit="10" xmlns:xlink="http://www.w3.org/1999/xlink" xmlns="http://www.w3.org/2000/svg"><clipPath id="p.0"><path d="m0 0l100.0 0l0 125.79002l-100.0 0l0 -125.79002z" clip-rule="nonzero"/></clipPath><g clip-path="url(#p.0)"><path fill="#000000" fill-opacity="0.0" d="m0 0l100.0 0l0 125.79002l-100.0 0z" fill-rule="evenodd"/><path fill="#f1c232" d="m5.4646873 110.16636l66.023285 -108.55956l23.048378 14.017465l-66.023285 108.559555z" fill-rule="evenodd"/><path stroke="#000000" stroke-width="1.0" stroke-linejoin="round" stroke-linecap="butt" d="m5.4646873 110.16636l66.023285 -108.55956l23.048378 14.017465l-66.023285 108.559555z" fill-rule="evenodd"/><path fill="#000000" fill-opacity="0.0" d="m9.999412 102.71008l5.6629925 3.4440994" fill-rule="evenodd"/><path stroke="#000000" stroke-width="1.0" stroke-linejoin="round" stroke-linecap="butt" d="m9.999412 102.71008l5.6629925 3.4440994" fill-rule="evenodd"/><path fill="#000000" fill-opacity="0.0" d="m14.445164 95.40011l5.6629925 3.4440918" fill-rule="evenodd"/><path stroke="#000000" stroke-width="1.0" stroke-linejoin="round" stroke-linecap="butt" d="m14.445164 95.40011l5.6629925 3.4440918" fill-rule="evenodd"/><path fill="#000000" fill-opacity="0.0" d="m18.890915 88.090126l5.6629925 3.4440994" fill-rule="evenodd"/><path stroke="#000000" stroke-width="1.0" stroke-linejoin="round" stroke-linecap="butt" d="m18.890915 88.090126l5.6629925 3.4440994" fill-rule="evenodd"/><path fill="#000000" fill-opacity="0.0" d="m23.198904 81.00667l5.6629925 3.4440918" fill-rule="evenodd"/><path stroke="#000000" stroke-width="1.0" stroke-linejoin="round" stroke-linecap="butt" d="m23.198904 81.00667l5.6629925 3.4440918" fill-rule="evenodd"/><path fill="#000000" fill-opacity="0.0" d="m27.506891 73.92321l11.325983 6.888191" fill-rule="evenodd"/><path stroke="#000000" stroke-width="2.0" stroke-linejoin="round" stroke-linecap="butt" d="m27.506891 73.92321l11.325983 6.888191" fill-rule="evenodd"/><path fill="#000000" fill-opacity="0.0" d="m31.941164 66.6321l5.6629925 3.4440994" fill-rule="evenodd"/><path stroke="#000000" stroke-width="1.0" stroke-linejoin="round" stroke-linecap="butt" d="m31.941164 66.6321l5.6629925 3.4440994" fill-rule="evenodd"/><path fill="#000000" fill-opacity="0.0" d="m40.689163 52.248108l5.6629906 3.4440918" fill-rule="evenodd"/><path stroke="#000000" stroke-width="1.0" stroke-linejoin="round" stroke-linecap="butt" d="m40.689163 52.248108l5.6629906 3.4440918" fill-rule="evenodd"/><path fill="#000000" fill-opacity="0.0" d="m58.185165 23.480106l5.6629906 3.4440937" fill-rule="evenodd"/><path stroke="#000000" stroke-width="1.0" stroke-linejoin="round" stroke-linecap="butt" d="m58.185165 23.480106l5.6629906 3.4440937" fill-rule="evenodd"/><path fill="#000000" fill-opacity="0.0" d="m62.77729 15.92945l5.6629944 3.4440947" fill-rule="evenodd"/><path stroke="#000000" stroke-width="1.0" stroke-linejoin="round" stroke-linecap="butt" d="m62.77729 15.92945l5.6629944 3.4440947" fill-rule="evenodd"/><path fill="#000000" fill-opacity="0.0" d="m67.271835 8.539246l5.6629868 3.4440947" fill-rule="evenodd"/><path stroke="#000000" stroke-width="1.0" stroke-linejoin="round" stroke-linecap="butt" d="m67.271835 8.539246l5.6629868 3.4440947" fill-rule="evenodd"/><path fill="#000000" fill-opacity="0.0" d="m36.09704 59.798763l5.6629906 3.4440918" fill-rule="evenodd"/><path stroke="#000000" stroke-width="1.0" stroke-linejoin="round" stroke-linecap="butt" d="m36.09704 59.798763l5.6629906 3.4440918" fill-rule="evenodd"/><path fill="#000000" fill-opacity="0.0" d="m53.593037 31.030762l5.6629944 3.4440956" fill-rule="evenodd"/><path stroke="#000000" stroke-width="1.0" stroke-linejoin="round" stroke-linecap="butt" d="m53.593037 31.030762l5.6629944 3.4440956" fill-rule="evenodd"/><path fill="#000000" fill-opacity="0.0" d="m44.84504 45.41476l5.6629906 3.4440956" fill-rule="evenodd"/><path stroke="#000000" stroke-width="1.0" stroke-linejoin="round" stroke-linecap="butt" d="m44.84504 45.41476l5.6629906 3.4440956" fill-rule="evenodd"/><path fill="#000000" fill-opacity="0.0" d="m49.00091 38.581417l11.325985 6.888191" fill-rule="evenodd"/><path stroke="#000000" stroke-width="2.0" stroke-linejoin="round" stroke-linecap="butt" d="m49.00091 38.581417l11.325985 6.888191" fill-rule="evenodd"/></g></svg>