<svg version="1.1" viewBox="0.0 0.0 100.0 111.68241469816273" fill="none" stroke="none" stroke-linecap="square" stroke-miterlimit="10" xmlns:xlink="http://www.w3.org/1999/xlink" xmlns="http://www.w3.org/2000/svg"><clipPath id="p.0"><path d="m0 0l100.0 0l0 111.68241l-100.0 0l0 -111.68241z" clip-rule="nonzero"/></clipPath><g clip-path="url(#p.0)"><path fill="#000000" fill-opacity="0.0" d="m0 0l100.0 0l0 111.68241l-100.0 0z" fill-rule="evenodd"/><path fill="#000000" fill-opacity="0.0" d="m8.07874 64.396324l0 0c0 -23.15247 18.768787 -41.921257 41.92126 -41.921257l0 0c11.11821 0 21.781044 4.4166927 29.642807 12.278452c7.861763 7.861763 12.27845 18.524597 12.27845 29.642807l0 0c0 23.152473 -18.768784 41.921265 -41.921257 41.921265l0 0c-23.152473 0 -41.92126 -18.768791 -41.92126 -41.921265z" fill-rule="evenodd"/><path stroke="#000000" stroke-width="8.0" stroke-linejoin="round" stroke-linecap="butt" d="m8.07874 64.396324l0 0c0 -23.15247 18.768787 -41.921257 41.92126 -41.921257l0 0c11.11821 0 21.781044 4.4166927 29.642807 12.278452c7.861763 7.861763 12.27845 18.524597 12.27845 29.642807l0 0c0 23.152473 -18.768784 41.921265 -41.921257 41.921265l0 0c-23.152473 0 -41.92126 -18.768791 -41.92126 -41.921265z" fill-rule="evenodd"/><path fill="#000000" fill-opacity="0.0" d="m50.0 19.95013l0 -13.259842" fill-rule="evenodd"/><path stroke="#000000" stroke-width="8.0" stroke-linejoin="round" stroke-linecap="butt" d="m50.0 19.95013l0 -13.259842" fill-rule="evenodd"/><path fill="#000000" fill-opacity="0.0" d="m77.64567 31.181103l8.062996 -13.984253" fill-rule="evenodd"/><path stroke="#000000" stroke-width="12.0" stroke-linejoin="round" stroke-linecap="butt" d="m77.64567 31.181103l8.062996 -13.984253" fill-rule="evenodd"/><path fill="#000000" fill-opacity="0.0" d="m22.204725 31.181103l-7.7165365 -13.354332" fill-rule="evenodd"/><path stroke="#000000" stroke-width="12.0" stroke-linejoin="round" stroke-linecap="butt" d="m22.204725 31.181103l-7.7165365 -13.354332" fill-rule="evenodd"/><path fill="#000000" fill-opacity="0.0" d="m39.496063 5.3648295l21.007874 0" fill-rule="evenodd"/><path stroke="#000000" stroke-width="8.0" stroke-linejoin="round" stroke-linecap="butt" d="m39.496063 5.3648295l21.007874 0" fill-rule="evenodd"/><path fill="#000000" fill-opacity="0.0" d="m50.0 61.204723l0 -25.322834" fill-rule="evenodd"/><path stroke="#000000" stroke-width="4.0" stroke-linejoin="round" stroke-linecap="butt" d="m50.0 61.204723l0 -25.322834" fill-rule="evenodd"/></g></svg>