<svg version="1.1" viewBox="0.0 0.0 100.0 136.34383202099738" fill="none" stroke="none" stroke-linecap="square" stroke-miterlimit="10" xmlns:xlink="http://www.w3.org/1999/xlink" xmlns="http://www.w3.org/2000/svg"><clipPath id="p.0"><path d="m0 0l100.0 0l0 136.34383l-100.0 0l0 -136.34383z" clip-rule="nonzero"/></clipPath><g clip-path="url(#p.0)"><path fill="#000000" fill-opacity="0.0" d="m0 0l100.0 0l0 136.34383l-100.0 0z" fill-rule="evenodd"/><path fill="#000000" d="m70.719025 32.87555l0 0c0 -0.8987503 0.7285843 -1.6273308 1.6273346 -1.6273308l23.831955 0c0.43159485 0 0.8455124 0.17144966 1.1506958 0.47663307c0.3051834 0.30518532 0.47663116 0.71910286 0.47663116 1.1506977l0 6.509121c0 0.8987465 -0.72857666 1.627327 -1.627327 1.627327l-23.831955 0c-0.8987503 0 -1.6273346 -0.7285805 -1.6273346 -1.627327z" fill-rule="evenodd"/><path stroke="#000000" stroke-width="1.0" stroke-linejoin="round" stroke-linecap="butt" d="m70.719025 32.87555l0 0c0 -0.8987503 0.7285843 -1.6273308 1.6273346 -1.6273308l23.831955 0c0.43159485 0 0.8455124 0.17144966 1.1506958 0.47663307c0.3051834 0.30518532 0.47663116 0.71910286 0.47663116 1.1506977l0 6.509121c0 0.8987465 -0.72857666 1.627327 -1.627327 1.627327l-23.831955 0c-0.8987503 0 -1.6273346 -0.7285805 -1.6273346 -1.627327z" fill-rule="evenodd"/><path fill="#000000" d="m74.191925 132.07909l0 0c-1.252449 0 -2.2677612 -1.0153198 -2.2677612 -2.2677765l0 -32.031395c0 -0.60144806 0.23892212 -1.1782684 0.66420746 -1.6035538c0.42529297 -0.42528534 1.0021057 -0.66420746 1.6035538 -0.66420746l9.070778 0c1.252449 0 2.2677612 1.0153046 2.2677612 2.2677612l0 32.031395l0 0c0 1.2524567 -1.0153122 2.2677765 -2.2677612 2.2677765z" fill-rule="evenodd"/><path stroke="#000000" stroke-width="1.0" stroke-linejoin="round" stroke-linecap="butt" d="m74.191925 132.07909l0 0c-1.252449 0 -2.2677612 -1.0153198 -2.2677612 -2.2677765l0 -32.031395c0 -0.60144806 0.23892212 -1.1782684 0.66420746 -1.6035538c0.42529297 -0.42528534 1.0021057 -0.66420746 1.6035538 -0.66420746l9.070778 0c1.252449 0 2.2677612 1.0153046 2.2677612 2.2677612l0 32.031395l0 0c0 1.2524567 -1.0153122 2.2677765 -2.2677612 2.2677765z" fill-rule="evenodd"/><path fill="#000000" d="m14.263607 126.53049l0 0c-0.81757164 -0.81757355 -0.81757164 -2.1431198 0 -2.9606934l22.866081 -22.866081c0.39261246 -0.39260864 0.92510986 -0.61317444 1.4803467 -0.61317444c0.5552368 0 1.0877304 0.2205658 1.4803429 0.61317444l5.9212036 5.9212036c0.81756973 0.8175659 0.81756973 2.1431122 0 2.9606857l-22.866085 22.866089c-0.81757164 0.8175659 -2.143116 0.8175659 -2.9606876 0z" fill-rule="evenodd"/><path stroke="#000000" stroke-width="1.0" stroke-linejoin="round" stroke-linecap="butt" d="m14.263607 126.53049l0 0c-0.81757164 -0.81757355 -0.81757164 -2.1431198 0 -2.9606934l22.866081 -22.866081c0.39261246 -0.39260864 0.92510986 -0.61317444 1.4803467 -0.61317444c0.5552368 0 1.0877304 0.2205658 1.4803429 0.61317444l5.9212036 5.9212036c0.81756973 0.8175659 0.81756973 2.1431122 0 2.9606857l-22.866085 22.866089c-0.81757164 0.8175659 -2.143116 0.8175659 -2.9606876 0z" fill-rule="evenodd"/><path fill="#000000" d="m3.43454 63.986145l0 0c-0.6842091 -0.6842079 -0.6842091 -1.7935295 0 -2.4777374l27.947456 -27.947456c0.3285694 -0.32857132 0.77420425 -0.5131569 1.2388725 -0.5131569c0.46466446 0 0.9103012 0.18458557 1.2388687 0.5131569l4.95533 4.95533c0.6842079 0.6842079 0.6842079 1.7935295 0 2.4777412l-27.947456 27.947453c-0.68420887 0.68421173 -1.7935314 0.68421173 -2.4777403 0z" fill-rule="evenodd"/><path stroke="#000000" stroke-width="1.0" stroke-linejoin="round" stroke-linecap="butt" d="m3.43454 63.986145l0 0c-0.6842091 -0.6842079 -0.6842091 -1.7935295 0 -2.4777374l27.947456 -27.947456c0.3285694 -0.32857132 0.77420425 -0.5131569 1.2388725 -0.5131569c0.46466446 0 0.9103012 0.18458557 1.2388687 0.5131569l4.95533 4.95533c0.6842079 0.6842079 0.6842079 1.7935295 0 2.4777412l-27.947456 27.947453c-0.68420887 0.68421173 -1.7935314 0.68421173 -2.4777403 0z" fill-rule="evenodd"/><path fill="#000000" d="m35.59178 16.537592l0 0c0 -7.801566 6.324421 -14.125985 14.125988 -14.125985l0 0c3.746441 0 7.339443 1.4882691 9.988579 4.137405c2.6491356 2.649136 4.1374054 6.2421355 4.1374054 9.988581l0 0c0 7.801565 -6.324421 14.125984 -14.125984 14.125984l0 0c-7.801567 0 -14.125988 -6.324419 -14.125988 -14.125984z" fill-rule="evenodd"/><path stroke="#000000" stroke-width="1.0" stroke-linejoin="round" stroke-linecap="butt" d="m35.59178 16.537592l0 0c0 -7.801566 6.324421 -14.125985 14.125988 -14.125985l0 0c3.746441 0 7.339443 1.4882691 9.988579 4.137405c2.6491356 2.649136 4.1374054 6.2421355 4.1374054 9.988581l0 0c0 7.801565 -6.324421 14.125984 -14.125984 14.125984l0 0c-7.801567 0 -14.125988 -6.324419 -14.125988 -14.125984z" fill-rule="evenodd"/><path fill="#e06666" d="m37.927845 32.62982l0 0c0 -0.9670296 0.78393173 -1.7509632 1.7509613 -1.7509632l33.056004 0c0.464386 0 0.90974426 0.18447685 1.2381134 0.512846c0.32836914 0.32836914 0.5128479 0.77373123 0.5128479 1.2381172l0 7.0036316c0 0.9670296 -0.78393555 1.7509613 -1.7509613 1.7509613l-33.056004 0c-0.9670296 0 -1.7509613 -0.78393173 -1.7509613 -1.7509613z" fill-rule="evenodd"/><path stroke="#e06666" stroke-width="1.0" stroke-linejoin="round" stroke-linecap="butt" d="m37.927845 32.62982l0 0c0 -0.9670296 0.78393173 -1.7509632 1.7509613 -1.7509632l33.056004 0c0.464386 0 0.90974426 0.18447685 1.2381134 0.512846c0.32836914 0.32836914 0.5128479 0.77373123 0.5128479 1.2381172l0 7.0036316c0 0.9670296 -0.78393555 1.7509613 -1.7509613 1.7509613l-33.056004 0c-0.9670296 0 -1.7509613 -0.78393173 -1.7509613 -1.7509613z" fill-rule="evenodd"/><path fill="#e06666" d="m36.341545 83.042175l0 0c-3.034134 0 -5.493786 -2.4596558 -5.493786 -5.4937897l0 -40.90564c0 -1.4570427 0.57880783 -2.8544083 1.6090927 -3.8846931c1.0302849 -1.0302849 2.4276505 -1.6090927 3.8846931 -1.6090927l21.974491 0c3.034134 0 5.493786 2.459652 5.493786 5.493786l0 40.90564c0 3.034134 -2.459652 5.4937897 -5.493786 5.4937897z" fill-rule="evenodd"/><path stroke="#e06666" stroke-width="1.0" stroke-linejoin="round" stroke-linecap="butt" d="m36.341545 83.042175l0 0c-3.034134 0 -5.493786 -2.4596558 -5.493786 -5.4937897l0 -40.90564c0 -1.4570427 0.57880783 -2.8544083 1.6090927 -3.8846931c1.0302849 -1.0302849 2.4276505 -1.6090927 3.8846931 -1.6090927l21.974491 0c3.034134 0 5.493786 2.459652 5.493786 5.493786l0 40.90564c0 3.034134 -2.459652 5.4937897 -5.493786 5.4937897z" fill-rule="evenodd"/><path fill="#e06666" d="m20.504728 46.926804l0 0c-0.68470764 -0.68470764 -0.68470764 -1.794838 0 -2.4795494l10.423248 -10.423248c0.32880783 -0.32880783 0.7747688 -0.51353073 1.2397747 -0.51353073c0.46500397 0 0.91096497 0.1847229 1.2397728 0.51353073l4.95895 4.95895c0.68470764 0.68470764 0.68470764 1.7948418 0 2.4795494l-10.423248 10.423248c-0.68470764 0.68470764 -1.7948399 0.68470764 -2.4795475 0z" fill-rule="evenodd"/><path stroke="#e06666" stroke-width="1.0" stroke-linejoin="round" stroke-linecap="butt" d="m20.504728 46.926804l0 0c-0.68470764 -0.68470764 -0.68470764 -1.794838 0 -2.4795494l10.423248 -10.423248c0.32880783 -0.32880783 0.7747688 -0.51353073 1.2397747 -0.51353073c0.46500397 0 0.91096497 0.1847229 1.2397728 0.51353073l4.95895 4.95895c0.68470764 0.68470764 0.68470764 1.7948418 0 2.4795494l-10.423248 10.423248c-0.68470764 0.68470764 -1.7948399 0.68470764 -2.4795475 0z" fill-rule="evenodd"/><path fill="#cccccc" d="m33.544796 109.54989l0 0c-1.6322689 0 -2.9567986 -1.3232117 -2.9584236 -2.9554825l-0.029371262 -29.518852c-7.801056E-4 -0.78383636 0.3098526 -1.5355759 0.86356163 -2.0898361c0.55370903 -0.55426025 1.3051376 -0.86563873 2.0889778 -0.86563873l11.821571 0c1.632267 0 2.9567986 1.3232117 2.9584198 2.9554749l0.029373169 29.518852c0.001625061 1.6322708 -1.3202744 2.9554825 -2.9525414 2.9554825z" fill-rule="evenodd"/><path stroke="#cccccc" stroke-width="1.0" stroke-linejoin="round" stroke-linecap="butt" d="m33.544796 109.54989l0 0c-1.6322689 0 -2.9567986 -1.3232117 -2.9584236 -2.9554825l-0.029371262 -29.518852c-7.801056E-4 -0.78383636 0.3098526 -1.5355759 0.86356163 -2.0898361c0.55370903 -0.55426025 1.3051376 -0.86563873 2.0889778 -0.86563873l11.821571 0c1.632267 0 2.9567986 1.3232117 2.9584198 2.9554749l0.029373169 29.518852c0.001625061 1.6322708 -1.3202744 2.9554825 -2.9525414 2.9554825z" fill-rule="evenodd"/><path fill="#cccccc" d="m59.20034 72.815735l0 0c1.1098137 -1.1098099 2.909172 -1.1098099 4.0189857 0l21.680851 21.680847c0.53295135 0.53295135 0.8323593 1.2557907 0.8323593 2.009491c0 0.7537079 -0.29940796 1.4765472 -0.8323593 2.009491l-8.037727 8.037727c-1.1098175 1.1098175 -2.909172 1.1098175 -4.0189896 0l-21.680847 -21.680847c-1.1098099 -1.1098099 -1.1098099 -2.909172 0 -4.018982z" fill-rule="evenodd"/><path stroke="#cccccc" stroke-width="1.0" stroke-linejoin="round" stroke-linecap="butt" d="m59.20034 72.815735l0 0c1.1098137 -1.1098099 2.909172 -1.1098099 4.0189857 0l21.680851 21.680847c0.53295135 0.53295135 0.8323593 1.2557907 0.8323593 2.009491c0 0.7537079 -0.29940796 1.4765472 -0.8323593 2.009491l-8.037727 8.037727c-1.1098175 1.1098175 -2.909172 1.1098175 -4.0189896 0l-21.680847 -21.680847c-1.1098099 -1.1098099 -1.1098099 -2.909172 0 -4.018982z" fill-rule="evenodd"/><path fill="#cccccc" d="m30.706745 73.48299l0 0c0 -1.1520004 0.93387794 -2.0868683 2.0858727 -2.088089l29.072342 -0.030830383c0.5532074 -5.874634E-4 1.0837593 0.21861267 1.4749374 0.609375c0.39117813 0.39076233 0.610939 0.92108154 0.610939 1.474289l0 8.343254c0 1.1520004 -0.93387985 2.0868683 -2.0858765 2.088089l-29.072342 0.030830383l0 0c-1.1519947 0.0012207031 -2.0858727 -0.93167114 -2.0858727 -2.083664z" fill-rule="evenodd"/><path stroke="#cccccc" stroke-width="1.0" stroke-linejoin="round" stroke-linecap="butt" d="m30.706745 73.48299l0 0c0 -1.1520004 0.93387794 -2.0868683 2.0858727 -2.088089l29.072342 -0.030830383c0.5532074 -5.874634E-4 1.0837593 0.21861267 1.4749374 0.609375c0.39117813 0.39076233 0.610939 0.92108154 0.610939 1.474289l0 8.343254c0 1.1520004 -0.93387985 2.0868683 -2.0858765 2.088089l-29.072342 0.030830383l0 0c-1.1519947 0.0012207031 -2.0858727 -0.93167114 -2.0858727 -2.083664z" fill-rule="evenodd"/></g></svg>